<svg width="20" height="20" viewBox="0 0 20 20" fill="none" xmlns="http://www.w3.org/2000/svg">
<path d="M10.0781 14.0103L11.4453 12.4526L12.9004 10.9927C12.9557 10.9373 13.0192 10.8934 13.0908 10.8608C13.1657 10.825 13.2471 10.8071 13.335 10.8071C13.501 10.8071 13.6393 10.8641 13.75 10.978C13.8607 11.0887 13.916 11.2319 13.916 11.4077C13.916 11.564 13.8525 11.7072 13.7256 11.8374L10.5225 15.0405C10.3988 15.1675 10.249 15.231 10.0732 15.231C9.89746 15.231 9.74772 15.1675 9.62402 15.0405L6.4209 11.8374C6.2972 11.7072 6.23535 11.564 6.23535 11.4077C6.23535 11.2319 6.28906 11.0887 6.39648 10.978C6.50716 10.8641 6.64551 10.8071 6.81152 10.8071C6.89941 10.8071 6.98079 10.825 7.05566 10.8608C7.13053 10.8934 7.19564 10.9373 7.25098 10.9927L8.69629 12.4526L10.0781 14.0103ZM7.40723 5.92432C8.49447 5.92432 9.31152 6.17008 9.8584 6.66162C10.4085 7.1499 10.6836 7.94092 10.6836 9.03467V12.1157L10.6348 13.9712C10.6283 14.1242 10.5713 14.256 10.4639 14.3667C10.3564 14.4774 10.2279 14.5327 10.0781 14.5327C9.92188 14.5327 9.79004 14.4774 9.68262 14.3667C9.5752 14.256 9.51986 14.1242 9.5166 13.9712L9.46289 12.1157L9.46777 9.12256C9.47103 8.62777 9.39941 8.23551 9.25293 7.9458C9.10645 7.65609 8.87858 7.44775 8.56934 7.3208C8.26335 7.19385 7.86621 7.13037 7.37793 7.13037C7.24121 7.13037 7.11263 7.13363 6.99219 7.14014C6.875 7.14339 6.77083 7.14665 6.67969 7.1499C6.50065 7.1499 6.35579 7.09782 6.24512 6.99365C6.13444 6.88949 6.0791 6.74951 6.0791 6.57373C6.0791 6.44678 6.10677 6.34261 6.16211 6.26123C6.2207 6.1766 6.29232 6.11149 6.37695 6.06592C6.46484 6.02035 6.55436 5.98942 6.64551 5.97314C6.75944 5.95361 6.87826 5.94059 7.00195 5.93408C7.12891 5.92757 7.264 5.92432 7.40723 5.92432Z" fill="#6155F5" style="fill:#6155F5;fill:color(display-p3 0.3804 0.3333 0.9608);fill-opacity:1;"/>
</svg>
